<?xml version="1.0" encoding="utf-8"?>
<!-- Generator: Adobe Illustrator 27.0.0, SVG Export Plug-In . SVG Version: 6.00 Build 0)  -->
<svg version="1.2" baseProfile="tiny" id="图层_1"
	 xmlns="http://www.w3.org/2000/svg" xmlns:xlink="http://www.w3.org/1999/xlink" x="0px" y="0px" viewBox="0 0 226.9 226.7"
	 overflow="visible" xml:space="preserve">
<path fill="#425DC6" d="M94.6,168.2c-3.4,2.6-6.9,5.1-10.7,7.3c-10,5.8-20.8,9.4-32.3,10.9c-1,0.1-2,0.2-2.9,0.4
	c-0.7,0.1-0.9-0.1-0.9-0.8c-0.9-8.7-1.8-17.5-2.7-26.2c-0.1-0.7,0.2-0.8,0.8-0.9c6.8-0.6,13.3-2.2,19.4-5.2
	c17.8-8.8,28.9-23,32.1-42.6c3.1-19.2-2.6-35.9-16.2-49.8c-1.8-1.9-3.8-3.5-6-5.1c-0.5-0.4-0.6-0.6,0-1c6.9-5.7,13.9-11.5,20.8-17.3
	c0.7-0.5,1-0.3,1.4,0.1c10.1,8.9,17.7,19.6,22.8,32.1c1.2,2.9,2,5.8,3,8.7c1.1,4.4,2,8.9,2.5,13.4c0.9,7.9,0.6,15.8-0.6,23.6
	c-0.5,3-1.3,5.9-1.9,8.8c-0.5,1.6-1,3.3-1.6,4.9c0,0.1-0.1,0.2-0.1,0.3c-4.2,12-10.7,22.4-19.5,31.5C99.6,163.9,97,166,94.6,168.2z"
	/>
<path fill="#F14B5A" d="M94.6,168.2c2.5-2.2,5-4.4,7.4-6.8c8.8-9.1,15.4-19.6,19.5-31.5c0-0.1,0.1-0.2,0.1-0.3
	c-1.4,5.5-2.3,11-2.1,16.7c0.4,14.6,5.6,27.4,15.6,38.1c4.6,4.9,9.9,8.9,16,11.9c0.8,0.4,0.9,0.7,0.5,1.5c-4.4,7.5-8.7,15.1-13,22.7
	c-0.4,0.8-0.8,0.6-1.3,0.2c-21.1-11.4-35.3-28.5-42.3-51.5C94.8,168.9,94.7,168.6,94.6,168.2z"/>
<path fill="#F14B5A" d="M123.2,124.8c0.6-2.9,1.4-5.8,1.9-8.8c1.3-7.8,1.5-15.7,0.6-23.6c-0.5-4.6-1.5-9-2.5-13.4
	c7.7-6.1,16.1-10.8,25.4-14.1c9.6-3.3,19.5-4.9,29.7-4.7c0.7,0,0.9,0.1,0.8,0.9c-1.8,8.8-3.6,17.5-5.4,26.3c-0.1,0.6-0.3,0.9-1,0.9
	c-23.2,2.4-39.6,14.2-49,35.6C123.4,124.2,123.3,124.5,123.2,124.8z"/>
<path fill="#425DC6" d="M85.1,26c0,11.2-9,20.1-20.2,20.1c-11.1,0-20-9-20-20.2c0-11,9.1-20,20.2-19.9C76.1,6,85.2,15,85.1,26z"/>
</svg>
